<?xml version="1.0" encoding="UTF-8"?>
<svg id="Layer_2" data-name="Layer 2" xmlns="http://www.w3.org/2000/svg" viewBox="0 0 571.68 952.66">
  <defs>
    <style>
      .cls-1 {
        fill: #f6f4f0;
      }

      .cls-2 {
        fill: #fff;
      }

      .cls-3 {
        fill: #f4bf2a;
      }

      .cls-4 {
        fill: #86332d;
      }

      .cls-5 {
        fill: #a56250;
      }

      .cls-6 {
        fill: #231c1c;
      }

      .cls-7 {
        fill: #d6d3d2;
      }

      .cls-8 {
        fill: #b2b2b2;
      }

      .cls-9 {
        fill: #836440;
      }

      .cls-10 {
        fill: #e8e9e4;
      }

      .cls-11 {
        fill: #59757f;
      }

      .cls-12 {
        fill: #47301c;
      }

      .cls-13 {
        fill: #442218;
      }

      .cls-14 {
        fill: #673b1f;
      }

      .cls-15 {
        fill: #8c8685;
      }

      .cls-16 {
        fill: #ce5b49;
      }

      .cls-17 {
        fill: #845025;
      }

      .cls-18 {
        fill: #ef8b73;
      }

      .cls-19 {
        fill: #878664;
      }

      .cls-20 {
        fill: #839eac;
      }

      .cls-21 {
        fill: #c9c7c7;
      }

      .cls-22 {
        fill: #685d5c;
      }

      .cls-23, .cls-24 {
        fill: none;
      }

      .cls-25 {
        fill: #999;
      }

      .cls-26 {
        fill: #b34c3e;
      }

      .cls-27 {
        fill: #e8b295;
      }

      .cls-28 {
        fill: #923a30;
      }

      .cls-29 {
        fill: #68624a;
      }

      .cls-30 {
        fill: #cecece;
      }

      .cls-31 {
        fill: #fffdfd;
        opacity: .3;
      }

      .cls-32 {
        fill: #c4644b;
      }

      .cls-24 {
        stroke: #231c1c;
        stroke-miterlimit: 10;
        stroke-width: 6.6px;
      }

      .cls-33 {
        fill: #d3866e;
      }
    </style>
  </defs>
  <g id="Layer_1-2" data-name="Layer 1">
    <g>
      <g>
        <g>
          <path class="cls-27" d="m482.25,341.49l-14.98-44.09-37.09,12.42-7.44,27.58s2.96,56.19-23.69,72.11c0,0-13.62-17.96-19.62-23.27-47.22-37.5-83.56,64.75-41.08,92.38,21.64,15.31,47.11,28.55,71.99,30.21,91.22-18.73,71.9-167.36,71.9-167.36Z"/>
          <path class="cls-33" d="m424,480.78c-40.51-2.66-92.24-47.98-92.24-47.98l-11.73,13.01c1.6,13.47,7.31,25.66,18.33,32.83,21.64,15.31,47.11,28.55,71.99,30.21,57.55-11.81,73.47-74.74,73.24-122.14-11.59,58.99-43.29,86.14-59.58,94.07Z"/>
        </g>
        <g>
          <g>
            <path class="cls-5" d="m419.16,280.04c54.52-25.41,21.19,30.33,96.21-15.15l7.76,38.86-33.73,31.61-70.24-55.32Z"/>
            <path class="cls-33" d="m468.07,319.9s-.02,22.61,14.95,29.42c0,0,31.49-19.61,43.13-42.72,0,0-43.04-11.88-58.08,13.31Z"/>
          </g>
          <rect class="cls-17" x="456.84" y="127.69" width="22" height="241" rx="11" ry="11"/>
          <g>
            <path class="cls-27" d="m517.45,247.89s-7.6-22.67-26.92-19.86c-4.05.59-20.26,10.44-26.46,14.42l18.57,27.17s-10.56,22.76-10.22,45.21c16.92,9.12,21.3-6.37,21.3-6.37l32.43-1.87-8.71-58.69Z"/>
            <path class="cls-33" d="m501.16,263.74c-25.48-23.53-3.15-16.58-3.15-16.58,0,0-20.4-15.8-7.48-19.13-8.97,1.31-26.46,14.42-26.46,14.42l3.4,18.8-16.25,11.83s-2.17,15.51,7.66,22.28c3.06,8.79,7.85,17.38,15.22,20.3,3.35,1.56,7.15,2.58,10.81,1.71-14.32.52.58-25.69.58-25.69,0,0,3.65-10.89,17.84-6.76-25.32-21.83-2.17-21.18-2.17-21.18Z"/>
          </g>
          <path class="cls-27" d="m454.44,245.8l-35.28,34.24,3.59,57.37s25.01,18.91,33-16.08c2.66-11.68,4.88-26.68-4.84-40.02,0,0,6.86-10.36,7.53-11.35,4.3,2.95,18.34,7.85,26.25-8.68l-30.25-15.47Z"/>
        </g>
      </g>
      <g>
        <path class="cls-6" d="m333.24,842.91s-33.29-14.85-34.23-39.86l-75.27-16.28s-23.52,58.34-21.33,109.14c0,0,37.25,13.49,59.33,6.27,25.03,21.05,71.5,29.17,127.96,3.14,0,0,0-71.19-56.46-62.41Z"/>
        <path class="cls-29" d="m388.41,891.59c-3.25-20.22-14.72-54.97-55.17-48.68,0,0-33.29-14.85-34.23-39.86l-71.97-15.57-3.5-.22c-1.46,3.72-10.97,28.54-16.77,58.75,14.05,40.34,47.74,32.77,47.74,32.77l13.78-10.79-3.28,12.97s56.14,32.04,123.39,10.62Z"/>
        <path class="cls-19" d="m333.24,842.91s-9.03-3.34-17.85-11.47c-43.21,6.46-55.41,27.08-55.41,27.08,21.59-12.24,39.39-9.62,39.39-9.62,0,0-7.59-.7-19.99,24.42,17.22,9.41,29.58,8.72,29.58,8.72,3.33-15.84,14.52-20.21,14.52-20.21l-3.28,20.21c28.59,2.44,51.28-1.06,64.98-4.29-5.96-18.95-19.8-39.86-51.94-34.86Z"/>
      </g>
      <g>
        <path class="cls-6" d="m165.21,862.5c2.34,1.56-2.91-42.14-2.91-42.14l-83.97,7.28c-27.31,69.98-16.01,98.21-16.01,98.21,13.96,22.73,33.58,26.8,77.92,26.8,24.71-8.06,62.95-28.76,24.97-90.16Z"/>
        <path class="cls-29" d="m179.82,895.49c-2.11-9.32-6.7-20.21-14.61-32.99l-12.93-34.64-67.41,7.53c-12.02,28.55-22.34,57.65-10.32,74.92,12.02,17.28,45.13,22.69,58.4,20.94,27.47-13.03,40.6-24.46,46.87-35.76Z"/>
        <path class="cls-19" d="m176.33,884.34c-2.56-6.6-6.2-13.85-11.15-21.84-21.49-28.61-85.34,6.2-85.34,6.2v11.26c24.29-11.02,37.56-6.51,37.56-6.51l-2,6.51c-22.29,2-33.36,11.82-33.36,11.82,20.03,28.05,50.89,26.44,50.89,26.44,25.25-10.52,37.58-22.97,43.4-33.89Z"/>
      </g>
      <g>
        <path class="cls-20" d="m109.74,546.7c-8.85,17.93-14.96,39.3-14.96,39.3,0,0,18.99,44.76,10,91.89-7.61,39.88-17.9,39.27-34.73,98.11-.15,58.09,49.25,61.41,49.25,61.41,15.34.24,32.01,1.75,47.22,11.28,9.11-9.4,14.98-49.66,14.98-49.66l-10.02-14.79s5.25-86.66,20.79-106.35c15.53-19.68,28.41-24.9,28.41-24.9,44.84,4.15-9.48,170.19-9.48,170.19l56.61,10.37c20.24-2.1,36.31-15.23,48.55-13.19,0,0-5.96-35.98-20.67-38.11-10.02-25.56,15.44-127.23,34.69-200.64,21.8-83.15-190.19-96.56-220.64-34.9Z"/>
        <path class="cls-11" d="m283.72,790.56s-25.7-12.64-7.45-21.78l-14.9-6.87s4.15-104.76-40.69-108.91c20.32,17.25-35.62,135.57-9.48,170.19,0,0,31.66,13.78,56.61,10.37,0,0-41.82-21.37,15.91-43Z"/>
        <path class="cls-11" d="m76.55,777.64c.05-8.01,3.11-18.35,18.14-19.99,0,0,28.65-77.07,25.92-104.65,0,0,21.12,1.64,58.17-21.37,0,0-23.16,11.29-43.8,11.29-2.41-26.04,6.6-48.79,6.6-48.79l-46.59-6.97c1.31,7.27,7.93,48.03-.21,90.74-7.61,39.88-12.9,39.27-29.73,98.11-3.46,12.1,5.83,49.99,5.83,49.99,8.74,13.14,27.31,11.08,48.42,11.41-38.17-24.11-27.74-39.81-27.74-39.81l34.97,2.29-25.29-16.39c30.94-44.48,44.19-17.87,85.19-94.38,1.92-4.87,3.88-8.74,5.84-11.23-44.11,42.42-93.11,91.04-115.71,99.75Z"/>
        <path class="cls-11" d="m297.59,624.74c3.28,11.48,9.56,19.79,15.45,25.46.79-3.3,1.59-6.61,2.39-9.91-5.32-2.92-11.82-7.72-17.84-15.55Z"/>
      </g>
      <g id="Body">
        <path class="cls-4" d="m107.17,400.08c-9.79,41.58-34.32,152.46-28.46,195.74,39.74,23.88,181.02,38.28,262.29,4.58-197.57-58.28-81.36-154.88-233.83-200.32Z"/>
        <path class="cls-26" d="m388.9,382.03l-58.76-55.83-110.76-32.74-118.03,21.02S29.24,382.57,6.52,440.25c28.77,36.84,73.58,34.5,73.58,34.5l33.73-29.05c58.7,64.23,67.72,200.79,227.16,154.69,2.63-41.89-.89-80.83-10.55-126.54l9.86,8.59c8.66,1.03,46.56-44.63,48.58-100.41Z"/>
        <path class="cls-28" d="m147.14,306.32l-45.8,8.16s-42.21,32.21-68.1,78.45c15.47-9.96,32.44-27.27,62.32-20.57,19.27,4.32,8.8,8.9,94.36,55.43,12.41-4.18,28.43-19.86,28.43-19.86,17.27-47.31-32.64-81.2-71.22-101.61Z"/>
      </g>
      <g>
        <g>
          <path class="cls-13" d="m276.22,231.69c40.04,25.12,22.59,59.02,10.46,88.12-36.78,14.96-77.61,15.36-109.14,0-19.92-32.67-10.06-88.12-10.06-88.12h108.74Z"/>
          <path class="cls-28" d="m192.01,289.14c16.44-7.84,45.96-4.03,64.6,17.18-36.49,18-64.6-17.18-64.6-17.18Z"/>
          <path class="cls-10" d="m296.19,272.9c-13.96,3.46-28.12,5.31-42.68,5.5-.24-5-.66-12.84-.66-12.84l-2.48.26s-.6,7.41-.95,12.59c-24.16-.19-49.42-4.9-76.74-14.28.35,1.73.09,19.48.09,19.48,54.12,24.02,86.58,19.86,106.61,12.76-1.72,17.34-4.12,31.17-4.12,31.17,0,0-92.54-2.23-109.38-21.16-3.93-17.74,1.8-61.65,1.8-61.65,0,0,92.08,18.06,122.02,3.56,5.67,27.56,6.5,24.61,6.5,24.61Z"/>
        </g>
        <path class="cls-27" d="m132.89,344.43c25.15,48.56,77.35,53.64,77.35,53.64l22.89,27.76,31.53-32.12s28.3,4.04,37.19-14.57c4.85-21.81,13.38-82.57,14.85-106.67,1.36-22.42-8.96-43.45-23.82-48.91-10.21-3.75-14.42-8.67-14.42-8.67.84-68.52-29.71-85.4-55.4-82.94l-19.32,1.95c-33.89,3.24-62.85,21.31-65.75,55.22,0,0-2.26,124.19-5.09,155.32Zm50.57-83.31s68.51,14.32,103.68,1.61c-4.45,63.46-93.99,62.62-103.68-1.61Z"/>
        <path class="cls-33" d="m301.43,257.42s-12.06-10.85-32.95-29.98c0,0-.21.92-.64,2.3v-8.01c5.35.42,13.51.63,18.48-1.36,0,0-4.69-3.05-4.55-2.95-3.88,1.96-9.29,2.33-13.93,2.18v-7.19l11.72,2.96-.65-.49c.26-21.5-2.78-37.62-7.88-49.55-17.64-1.09-26.62-7.06-26.62-7.06,3.35,14.68.59,29.27.59,29.27l4.91,5.37,7.16,25.69-7.16,14.05c-3.37.15-6.27.49-8.57.86-3.68-14.8-7.18-34.33-8.97-44.92l1.37-.37c.18-19.97-6.38-29.95-6.38-29.95-22.16,9.88-28.87-4.46-41.33,11.66-14.33-7.11-14.33-26.31.81-32.94-27.12,8.23-45.89,22.96-48.39,52.12,0,0-10.02,125.9-12.85,157.02,25.15,48.56,85.11,51.93,85.11,51.93l8.13,9.86,5.73-13.28c40.56-.95,54.35-28.43,54.35-28.43-26.32,18.59-71.6,1.62-85.74-31.93-.81,4.85-2.64,7.15-2.64,7.15-42.17-22.13-44.99-100.37-16.6-118.34l2.37,6.94c7.62-1.1,11.98-3.51,31.96-4.27-19.96.95-29.11-2.68-29.11-2.68-1.08-2.9-2.7-6.29-3.96-10.26,1.03-5.5,1.49-11.98,2.52-17.83,0,0,11.62,5.36,11.62,5.36,31.14-13.05,41.46,14.72,33.03,26.18-5.56,6.68-21.64,7.84-21.64,7.84-11.28,18.09-17.08,17.29-21.73,33.33,6.31-15.86,16.18-17.97,23.27-26.62,7.13,1.44,16.3,10.8,37.94,4.97h0s9.31-2.26,17.22-3.09c28.07,11.07,29.74,19.79,29.74,19.79l-1.42,9.96,4.34-1.74s-2.91,22.5-6.52,45.62l7.29,1.24c3.88-6.54,13.95-27.18,10.61-60.39Z"/>
      </g>
      <g>
        <path class="cls-15" d="m199.64,125.99s.71,8.75-.87,9.19c-46.17,12.99-34.28,37.97-34.28,37.97-6.08,23.42-10.99,69.34-10.99,69.34-1.85,11.88-13.52,9.02-11.08-3.66,1.91-9.94,14.89-42.2-6.9-37.28-3.97-34.45,15.27-53.23,37.01-63.83,9.88-4.82,18.13-9.58,27.11-11.73Z"/>
        <path class="cls-21" d="m183.45,140.83c0-10.64,33.26-18.53,65.99-10.4l-3.21,6.57c-17.47-3.37-44.44-5.29-62.78,3.83Z"/>
      </g>
      <g>
        <path class="cls-28" d="m313.77,349.31c12.19,45.8-16.72,65.1-33,76.52-6.28-7.91-19.65-17.9-19.65-17.9l-28,17.9,31.53-32.12s31.27-1.01,49.12-44.4Z"/>
        <path class="cls-16" d="m309.39,334.69c-9.57,55.46-44.74,59.02-44.74,59.02l22.25,21.45c42.61-28.58,38.89-75.41,22.49-80.47Z"/>
        <path class="cls-26" d="m211.3,391.28c-92.07-25.59-82.89-78.24-82.89-78.24l-10.44,11.68c-14.87,39.49,70.69,93.25,70.69,93.25l19.34-16.17,25.12,24.04-21.83-34.55Z"/>
      </g>
      <g>
        <g>
          <path class="cls-1" d="m203.16,184c15.2-1.05,32.96-12.6,25.87,31.5-17.37,6.44-38.79,3.52-38.79,3.52-12.93-22.06-2.46-33.96,12.93-35.03Z"/>
          <g>
            <circle class="cls-9" cx="207.84" cy="203.69" r="9"/>
            <path class="cls-14" d="m215.45,200.07c.92,1.97.99,3.83.61,5.53l-8.54-1.91h-8.76c0-5.18,4.5-9.31,9.8-8.7,2.64.3,5.77,2.67,6.89,5.08Z"/>
            <circle class="cls-6" cx="207.84" cy="204.69" r="4"/>
            <ellipse class="cls-2" cx="210.84" cy="200.69" rx="3" ry="1"/>
          </g>
        </g>
        <g>
          <path class="cls-1" d="m259.11,182.93c18.47,2.77,17.15,16.3,15.06,30.47-3.68,6.56-15.62,4.11-27.71-1.09-6.37-19.4-.12-31.29,12.65-29.37Z"/>
          <g>
            <circle class="cls-9" cx="258.84" cy="203.69" r="9"/>
            <path class="cls-14" d="m266.89,203.48l-9.95-1.79h-7.29c.93-3.84,4.38-6.69,8.5-6.69,4.74,0,8.59,3.77,8.74,8.48Z"/>
            <circle class="cls-6" cx="257.84" cy="202.69" r="4"/>
            <ellipse class="cls-2" cx="261.84" cy="200.69" rx="3" ry="1"/>
          </g>
        </g>
      </g>
      <g>
        <path class="cls-22" d="m277.37,171.11c2.89-17.41-24.21-3.81-33.78-18.6-14.87,13.95,17.28,14.22,27.63,16.24,1.91.37.81,2.63,2.28,3.88,1.38,1.18,3.58.28,3.88-1.52Z"/>
        <path class="cls-22" d="m185.55,175.89c9.3-17.34,26-2.42,47.1-17.23-2.85-2.34-1.24-9.58-6.98-6.44-16.6,9.1-29.64.8-44.48,18.11-2.69,3.14,4.35,5.55,4.35,5.55Z"/>
      </g>
      <g>
        <path class="cls-6" d="m295.22,182.69c-28.07-11.62-51.53,0-51.53,0h-10.46s-29.7-10.51-67.13,1.86l-32.64,18.8,5.6,2.63,27.04-14.04c39.11-14.41,63.87-.69,63.87-.69l.94,17.53c-6.86,4.22-1.22,13.8-1.22,13.8,0,0,8.69-1.97,6.14-15.29-2.55-13.32.42-13.32.42-13.32l5.7-2.03,2.47,11.64.68-12.35c5.12-8.54,36.14-7.62,39.04-4.11l-6.5,3.05.51,5.22,18.76-4.55-1.71-8.14Z"/>
        <path class="cls-2" d="m171.66,203.24c-1.86,11.29,7.54,20.89,7.54,20.89,0,0,16.66,5.54,37.51-.25-24.46,4.1-35.81-2.29-35.81-2.29-3.33-6.04-9.31-12.77-6.38-23.92-1.52,2.46-2.87,5.58-2.87,5.58Z"/>
        <path class="cls-31" d="m292.03,194.88c5.29,11.38-1.89,22.77-1.89,22.77l-3.4-2.78c6.69-6.77,5.29-19.99,5.29-19.99Z"/>
      </g>
      <g>
        <path class="cls-33" d="m139.09,238.47c-4.48,7.87-16.63,5.41-26.64-11.15-11.95-19.76,19.01-45.5,31.96-20.23,4.04,10.5-5.31,31.38-5.31,31.38Z"/>
        <path class="cls-5" d="m139.13,233.6c7.9-25.18-5.47-29.37-8.41-29.84-9.97-1.58-14.11,9.88-11.9,16.81.37-6.36,14.6-4.2,18.74,2.69-3.05,9.09,1.57,10.34,1.57,10.34Z"/>
      </g>
      <g>
        <path class="cls-7" d="m202.79,238.73c23,5.45,40.32-1.57,40.32-1.57l27.95,5.62c17.73,11.49,17.17,15.03,17.17,15.03-30.23,13.45-102.82-1.14-102.82-1.14,6.66-9.59,12.45-9.66,17.38-17.94Z"/>
        <g>
          <path class="cls-8" d="m178.97,267.69c10.23,53.18,53.55,55.34,63.04,55.21,12.22-.16,43.85-12.19,46.21-45.86l4.64-.98c0,28.35-3.18,36.6-3.18,36.6,23.08,74.05-60.58,82.68-99.63,28.76-19.49-65.43-11.09-73.74-11.09-73.74Z"/>
          <path class="cls-7" d="m292.87,275.92c0,28.35-2.44,33.63-2.44,33.63,0,0,2.44,12.43,2.44,17.17l-4.55,4-1.84,8.97-4.21.04-3.56,10.89-6.17-2.55-5.78,8.87-6.85-2.97-7.56,4.55-8.74-5.17-6.57,3.94-9.17-8.77-4.63,3.13-5.98-8.95-4.05,2.24-4.72-10.41-5.13,4.05-2.32-11.16-5.06.71-2.98-11.89-3.14.64c-13.38-27.49-10.9-49.34-10.9-49.34,6.02,19.38,17.57,37.56,36.26,45.47,29.56,13.55,66.91-3.38,73-36.11l4.64-.98Z"/>
        </g>
      </g>
      <g>
        <path class="cls-32" d="m226.42,232.2s6.54-4.52,13.52-11.67c14.53-14.87,38.73-6.75,40.52,10.54,1.93,18.63-17.9,30.78-32.52,25.51-8.21-2.96-21.52-24.37-21.52-24.37Z"/>
        <path class="cls-18" d="m279.05,225.62c-.71,6.5-7.66,12.11-16.64,12.99-9.91.97-18.54-4.19-19.26-11.54-.6-6.14,4.51-11.86,12.01-14.14,10.12-1.18,20.16,3.95,23.89,12.69Z"/>
      </g>
      <g>
        <path class="cls-25" d="m338.34,465.1l10.33-13.53-31.86-11.47-44.64.5h0l1.08,3.51c-12.73-2.84-12.98,15.12-9.27,18.46,3.71,3.33,74.37,2.54,74.37,2.54Z"/>
        <path class="cls-30" d="m305.29,438.69c.72-22.89,32.24-13.73,20.46,1.63l24.88,8.69-3.31,4.3-31.92-10.62h-42.63l-1.36-4h33.88Z"/>
        <polygon class="cls-17" points="369.54 462.1 224.44 445.2 179.95 607.65 313.3 612.95 374.14 469.33 369.54 462.1"/>
        <polygon class="cls-12" points="224.44 445.2 230.07 453.91 199.01 550.76 214.95 579.73 185.15 598.96 313.3 612.95 179.95 607.65 175.67 595.98 224.44 445.2"/>
      </g>
      <g>
        <path class="cls-27" d="m167.35,481.65c-72.76-12.13-58.62-56.13-133.52-58.02-35.82,0,13.67,108.79,126.26,102.2,38.34-18.61,7.27-44.18,7.27-44.18Z"/>
        <path class="cls-33" d="m209.7,558.51c-21.5-9.44-18.88-10.99-18.88-10.99,2.71-18.62-2.93-53.9-8.65-67.14-3.13-7.24-5.01-11.98-11.12-7.55-5.87,4.26-8.37,11.22-13.75,16.18-10.85,10.01-14.54,18.96-15.97,26.78-65.7-17.6-125-82.25-107.51-92.16-24.37-.02-33.82,27.3-33.82,27.3,0,0,13.18,105.77,148.6,96.39.39.71.78,1.42,1.18,2.15,6.37,11.62,14.62,24.99,26.09,28.29,16.45,6.4,40.48,4.54,40.48,4.54l7.01-15.93s-10.8-6.12-13.66-7.87Z"/>
        <path class="cls-27" d="m247.23,515.76s-11.9-6.84-20.31-9.74l15.03,2.4,4.57-18.35-23.16-16.85s-16.06-5.45-24.85-6.4c-12.56-1.37-19.74-.67-27.46,6.02-4.26,4.27,4.72,12.94,4.72,12.94,0,0-10.54,2.61-13.62,9.38-3.6,7.92,16.99,21.79,16.99,21.79-24.61-7.96-24.1,11.96-6.76,25.22,2.79,2.14,6.02,4.1,9.66,5.75-21.13-5.73-15.42,10.02-1.68,18.15,9.66,5.71,37.78,12.17,37.78,12.17l5.23-11.86s-4.54-3.55-10.43-5.81l19.09,1.73,6.73-22.47s-6.37-3.51-13.9-5.99l18.97,2.61,3.4-20.68Z"/>
      </g>
    </g>
    <g>
      <rect class="cls-3" x="387.46" y="22.99" width="161.23" height="161.23" rx="25.12" ry="25.12" transform="translate(63.84 361.32) rotate(-45)"/>
      <rect class="cls-24" x="396.14" y="31.67" width="143.87" height="143.87" rx="17.48" ry="17.48" transform="translate(63.84 361.32) rotate(-45)"/>
      <path class="cls-6" d="m475.78,70.48l2.64,7.21h-22.09c-16.29,0-29.49,13.2-29.49,29.49v31.51s24,0,24,0v-30.45c0-3.07,2.49-5.55,5.55-5.55h22.03s-2.57,7.18-2.57,7.18c-.58,1.62-.07,3.43,1.27,4.51l.22.18c1.34,1.08,3.22,1.2,4.69.29l39.57-24.66-39.66-24.69c-1.37-.85-3.12-.81-4.45.11l-.21.15c-1.51,1.05-2.12,2.99-1.49,4.72Z"/>
    </g>
    <rect class="cls-23" y=".19" width="571.6" height="952.46"/>
  </g>
</svg>