<?xml version="1.0" encoding="UTF-8"?>
<svg id="Layer_2" data-name="Layer 2" xmlns="http://www.w3.org/2000/svg" viewBox="0 0 571.6 952.46">
  <defs>
    <style>
      .cls-1 {
        fill: #f6f4f0;
      }

      .cls-2 {
        fill: #fff;
      }

      .cls-3 {
        fill: #86332d;
      }

      .cls-4 {
        fill: #a56250;
      }

      .cls-5 {
        fill: #231c1c;
      }

      .cls-6 {
        fill: #d6d3d2;
      }

      .cls-7 {
        fill: #b2b2b2;
      }

      .cls-8 {
        fill: #c1272d;
      }

      .cls-9 {
        fill: #836440;
      }

      .cls-10 {
        fill: #e8e9e4;
      }

      .cls-11 {
        fill: #59757f;
      }

      .cls-12 {
        fill: #47301c;
      }

      .cls-13 {
        fill: #442218;
      }

      .cls-14 {
        fill: #673b1f;
      }

      .cls-15 {
        fill: #8c8685;
      }

      .cls-16 {
        fill: #ce5b49;
      }

      .cls-17 {
        fill: #845025;
      }

      .cls-18 {
        fill: #ef8b73;
      }

      .cls-19 {
        fill: #878664;
      }

      .cls-20 {
        fill: #839eac;
      }

      .cls-21 {
        fill: #c9c7c7;
      }

      .cls-22 {
        fill: #685d5c;
      }

      .cls-23 {
        fill: none;
      }

      .cls-24 {
        fill: #999;
      }

      .cls-25 {
        fill: #b34c3e;
      }

      .cls-26 {
        fill: #e8b295;
      }

      .cls-27 {
        fill: #923a30;
      }

      .cls-28 {
        fill: #68624a;
      }

      .cls-29 {
        fill: #cecece;
      }

      .cls-30 {
        fill: #fffdfd;
        opacity: .3;
      }

      .cls-31 {
        fill: #c4644b;
      }

      .cls-32 {
        fill: #d3866e;
      }
    </style>
  </defs>
  <g id="Layer_1-2" data-name="Layer 1">
    <g>
      <g>
        <g>
          <path class="cls-26" d="m482.25,341.3l-14.98-44.09-37.09,12.42-7.44,27.58s2.96,56.19-23.69,72.11c0,0-13.62-17.96-19.62-23.27-47.22-37.5-83.56,64.75-41.08,92.38,21.64,15.31,47.11,28.55,71.99,30.21,91.22-18.73,71.9-167.36,71.9-167.36Z"/>
          <path class="cls-32" d="m424,480.58c-40.51-2.66-92.24-47.98-92.24-47.98l-11.73,13.01c1.6,13.47,7.31,25.66,18.33,32.83,21.64,15.31,47.11,28.55,71.99,30.21,57.55-11.81,73.47-74.74,73.24-122.14-11.59,58.99-43.29,86.14-59.58,94.07Z"/>
        </g>
        <g>
          <g>
            <path class="cls-4" d="m419.16,279.85c54.52-25.41,21.19,30.33,96.21-15.15l7.76,38.86-33.73,31.61-70.24-55.32Z"/>
            <path class="cls-32" d="m468.07,319.7s-.02,22.61,14.95,29.42c0,0,31.49-19.61,43.13-42.72,0,0-43.04-11.88-58.08,13.31Z"/>
          </g>
          <rect class="cls-17" x="456.84" y="127.5" width="22" height="241" rx="11" ry="11"/>
          <g>
            <path class="cls-26" d="m517.45,247.7s-7.6-22.67-26.92-19.86c-4.05.59-20.26,10.44-26.46,14.42l18.57,27.17s-10.56,22.76-10.22,45.21c16.92,9.12,21.3-6.37,21.3-6.37l32.43-1.87-8.71-58.69Z"/>
            <path class="cls-32" d="m501.16,263.54c-25.48-23.53-3.15-16.58-3.15-16.58,0,0-20.4-15.8-7.48-19.13-8.97,1.31-26.46,14.42-26.46,14.42l3.4,18.8-16.25,11.83s-2.17,15.51,7.66,22.28c3.06,8.79,7.85,17.38,15.22,20.3,3.35,1.56,7.15,2.58,10.81,1.71-14.32.52.58-25.69.58-25.69,0,0,3.65-10.89,17.84-6.76-25.32-21.83-2.17-21.18-2.17-21.18Z"/>
          </g>
          <path class="cls-26" d="m454.44,245.61l-35.28,34.24,3.59,57.37s25.01,18.91,33-16.08c2.66-11.68,4.88-26.68-4.84-40.02,0,0,6.86-10.36,7.53-11.35,4.3,2.95,18.34,7.85,26.25-8.68l-30.25-15.47Z"/>
        </g>
      </g>
      <g>
        <path class="cls-5" d="m333.24,842.72s-33.29-14.85-34.23-39.86l-75.27-16.28s-23.52,58.34-21.33,109.14c0,0,37.25,13.49,59.33,6.27,25.03,21.05,71.5,29.17,127.96,3.14,0,0,0-71.19-56.46-62.41Z"/>
        <path class="cls-28" d="m388.41,891.4c-3.25-20.22-14.72-54.97-55.17-48.68,0,0-33.29-14.85-34.23-39.86l-71.97-15.57-3.5-.22c-1.46,3.72-10.97,28.54-16.77,58.75,14.05,40.34,47.74,32.77,47.74,32.77l13.78-10.79-3.28,12.97s56.14,32.04,123.39,10.62Z"/>
        <path class="cls-19" d="m333.24,842.72s-9.03-3.34-17.85-11.47c-43.21,6.46-55.41,27.08-55.41,27.08,21.59-12.24,39.39-9.62,39.39-9.62,0,0-7.59-.7-19.99,24.42,17.22,9.41,29.58,8.72,29.58,8.72,3.33-15.84,14.52-20.21,14.52-20.21l-3.28,20.21c28.59,2.44,51.28-1.06,64.98-4.29-5.96-18.95-19.8-39.86-51.94-34.86Z"/>
      </g>
      <g>
        <path class="cls-5" d="m165.21,862.3c2.34,1.56-2.91-42.14-2.91-42.14l-83.97,7.28c-27.31,69.98-16.01,98.21-16.01,98.21,13.96,22.73,33.58,26.8,77.92,26.8,24.71-8.06,62.95-28.76,24.97-90.16Z"/>
        <path class="cls-28" d="m179.82,895.29c-2.11-9.32-6.7-20.21-14.61-32.99l-12.93-34.64-67.41,7.53c-12.02,28.55-22.34,57.65-10.32,74.92,12.02,17.28,45.13,22.69,58.4,20.94,27.47-13.03,40.6-24.46,46.87-35.76Z"/>
        <path class="cls-19" d="m176.33,884.15c-2.56-6.6-6.2-13.85-11.15-21.84-21.49-28.61-85.34,6.2-85.34,6.2v11.26c24.29-11.02,37.56-6.51,37.56-6.51l-2,6.51c-22.29,2-33.36,11.82-33.36,11.82,20.03,28.05,50.89,26.44,50.89,26.44,25.25-10.52,37.58-22.97,43.4-33.89Z"/>
      </g>
      <g>
        <path class="cls-20" d="m109.74,546.51c-8.85,17.93-14.96,39.3-14.96,39.3,0,0,18.99,44.76,10,91.89-7.61,39.88-17.9,39.27-34.73,98.11-.15,58.09,49.25,61.41,49.25,61.41,15.34.24,32.01,1.75,47.22,11.28,9.11-9.4,14.98-49.66,14.98-49.66l-10.02-14.79s5.25-86.66,20.79-106.35c15.53-19.68,28.41-24.9,28.41-24.9,44.84,4.15-9.48,170.19-9.48,170.19l56.61,10.37c20.24-2.1,36.31-15.23,48.55-13.19,0,0-5.96-35.98-20.67-38.11-10.02-25.56,15.44-127.23,34.69-200.64,21.8-83.15-190.19-96.56-220.64-34.9Z"/>
        <path class="cls-11" d="m283.72,790.36s-25.7-12.64-7.45-21.78l-14.9-6.87s4.15-104.76-40.69-108.91c20.32,17.25-35.62,135.57-9.48,170.19,0,0,31.66,13.78,56.61,10.37,0,0-41.82-21.37,15.91-43Z"/>
        <path class="cls-11" d="m76.55,777.45c.05-8.01,3.11-18.35,18.14-19.99,0,0,28.65-77.07,25.92-104.65,0,0,21.12,1.64,58.17-21.37,0,0-23.16,11.29-43.8,11.29-2.41-26.04,6.6-48.79,6.6-48.79l-46.59-6.97c1.31,7.27,7.93,48.03-.21,90.74-7.61,39.88-12.9,39.27-29.73,98.11-3.46,12.1,5.83,49.99,5.83,49.99,8.74,13.14,27.31,11.08,48.42,11.41-38.17-24.11-27.74-39.81-27.74-39.81l34.97,2.29-25.29-16.39c30.94-44.48,44.19-17.87,85.19-94.38,1.92-4.87,3.88-8.74,5.84-11.23-44.11,42.42-93.11,91.04-115.71,99.75Z"/>
        <path class="cls-11" d="m297.59,624.54c3.28,11.48,9.56,19.79,15.45,25.46.79-3.3,1.59-6.61,2.39-9.91-5.32-2.92-11.82-7.72-17.84-15.55Z"/>
      </g>
      <g id="Body">
        <path class="cls-3" d="m107.17,399.88c-9.01,38.28-32.43,166.42-28.46,195.74,39.74,23.88,181.02,38.28,262.29,4.58-197.57-58.28-81.36-154.88-233.83-200.32Z"/>
        <path class="cls-25" d="m388.9,381.84l-60.74-50.85-108.78-37.72-128.57,32.53S19.8,390.17,3.4,459.39c28.77,36.84,77.71,19.17,77.71,19.17l32.73-33.05c58.7,64.23,67.72,200.79,227.16,154.69,2.63-41.89-.89-80.83-10.55-126.54l9.86,8.59c8.66,1.03,46.56-44.63,48.58-100.41Z"/>
        <path class="cls-27" d="m147.14,306.13l-56.33,19.67s-33.49,25.14-59.39,71.38c15.47-9.96,34.26-31.71,64.14-25.01,19.27,4.32,8.8,8.9,94.36,55.43,12.41-4.18,28.43-19.86,28.43-19.86,17.27-47.31-32.64-81.2-71.22-101.61Z"/>
      </g>
      <g>
        <g>
          <path class="cls-13" d="m276.22,231.5c40.04,25.12,22.59,59.02,10.46,88.12-36.78,14.96-77.61,15.36-109.14,0-19.92-32.67-10.06-88.12-10.06-88.12h108.74Z"/>
          <path class="cls-27" d="m192.01,288.95c16.44-7.84,45.96-4.03,64.6,17.18-36.49,18-64.6-17.18-64.6-17.18Z"/>
          <path class="cls-10" d="m296.19,272.71c-13.96,3.46-28.12,5.31-42.68,5.5-.24-5-.66-12.84-.66-12.84l-2.48.26s-.6,7.41-.95,12.59c-24.16-.19-49.42-4.9-76.74-14.28.35,1.73.09,19.48.09,19.48,54.12,24.02,86.58,19.86,106.61,12.76-1.72,17.34-4.12,31.17-4.12,31.17,0,0-92.54-2.23-109.38-21.16-3.93-17.74,1.8-61.65,1.8-61.65,0,0,92.08,18.06,122.02,3.56,5.67,27.56,6.5,24.61,6.5,24.61Z"/>
        </g>
        <path class="cls-26" d="m132.89,344.24c25.15,48.56,77.35,53.64,77.35,53.64l22.89,30.76,31.53-32.12s28.3,1.04,37.19-17.57c4.85-21.81,10.38-62.57,11.85-86.67,1.36-22.42-2.67-52.06-20.82-66.91-8.42-6.89-14.42-10.67-14.42-10.67.84-68.52-29.71-85.4-55.4-82.94l-19.32,1.95c-33.89,3.24-62.85,21.31-65.75,55.22,0,0-2.26,124.19-5.09,155.32Zm64.83-63s22.53-8.97,88.08,0c-36.35-8.57-77.96-5.37-88.08,0Z"/>
        <path class="cls-32" d="m281.69,246.51c-1.77-5.97-4.11-9.13-13.21-18.85,0,0-.21.92-.64,2.3v-8.01c5.35.42,13.51.63,18.48-1.36,0,0-3.41-2.43-3.27-2.32-3.88,1.96-10.57,1.71-15.21,1.56l-10.02-.71-5.79-7.61,15.64-.09,10.79,3.7c.22-18.31-1.49-32.71-5.29-43.95-8.5-5.83-17.66,2.68-26.5.12.82,13.28-1.67,16.5-1.67,16.5l-.55,18.02,3.95,15.46,1.52,11.62c-3.37.15-6.27.49-8.57.86-3.68-14.8-7.18-34.33-8.97-44.92l1.37-.37c.18-19.97-3.38-35.87-3.38-35.87-12.74,6.54-32.63,3.72-44.33,17.59-14.33-7.11-14.33-26.31.81-32.94-27.12,8.23-45.89,22.96-48.39,52.12,0,0-10.02,125.9-12.85,157.02,25.15,48.56,85.11,51.93,85.11,51.93l8.13,9.86,5.73-12.28c40.56-.95,54.35-29.43,54.35-29.43-26.32,18.59-71.6,1.62-85.74-31.93-.81,4.85-2.64,7.15-2.64,7.15-23.13-23.07-37.02-98.93-4.27-113.4l-9.96,2c7.62-1.1,11.97-4.04,31.96-4.27-9.02.1-14.18-1.98-14.18-1.98-1.08-2.9-2.63-7.02-3.89-10.98,4.9-2.42,13.35-1.35,13.35-1.35,0,0-4.57-18.16-2.48-19.61,31.14-13.05,29.72,23.23,21.3,34.69-5.56,6.68-11.5,13.39-11.5,13.39-7.25,10.13-8.4,17.89-9.84,27.78,2.86-6.5,6.67-9.68,12.07-14.46,13.36-.47,18.76-4.75,27.12-7.2h0s9.31-2.26,17.22-3.09c28.07,11.07,17.94,17.07,17.94,17.07h0l4.38,10.68s4.61-15.56,1.98-24.41Z"/>
      </g>
      <g>
        <path class="cls-15" d="m199.64,125.8s.71,8.75-.87,9.19c-46.17,12.99-34.28,37.97-34.28,37.97-6.08,23.42-10.99,69.34-10.99,69.34-1.85,11.88-13.52,9.02-11.08-3.66,1.91-9.94,14.89-42.2-6.9-37.28-3.97-34.45,15.27-53.23,37.01-63.83,9.88-4.82,18.13-9.58,27.11-11.73Z"/>
        <path class="cls-21" d="m183.45,140.64c0-10.64,33.26-18.53,65.99-10.4l-3.21,6.57c-17.47-3.37-44.44-5.29-62.78,3.83Z"/>
      </g>
      <g>
        <path class="cls-27" d="m313.77,352.12c12.19,45.8-16.72,65.1-33,76.52-6.28-7.91-19.65-17.9-19.65-17.9l-28,17.9,31.53-32.12s31.27-1.01,49.12-44.4Z"/>
        <path class="cls-16" d="m308.9,337.49c-9.57,55.46-44.24,59.02-44.24,59.02l22.25,21.45c42.61-28.58,38.39-75.41,21.99-80.47Z"/>
        <path class="cls-25" d="m211.3,394.09c-92.07-25.59-82.89-78.24-82.89-78.24l-10.44,11.68c-14.87,39.49,70.69,93.25,70.69,93.25l19.34-16.17,25.12,24.04-21.83-34.55Z"/>
      </g>
      <g>
        <g>
          <g>
            <path class="cls-32" d="m208.12,183.64c14.85,3.4,28-12.43,20.91,31.67-10.19-4.85-25.5-3.65-25.5-3.65-3.73-19.8-.86-29.27,4.59-28.02Z"/>
            <g>
              <ellipse class="cls-32" cx="219.34" cy="203.5" rx="6.5" ry="9"/>
              <path class="cls-32" d="m225.07,199.88c.66,1.97.71,3.83.44,5.53l-6.14-1.91h-6.3c0-5.18,3.23-9.31,7.05-8.7,1.9.3,4.15,2.67,4.96,5.08Z"/>
              <ellipse class="cls-32" cx="218.84" cy="203.5" rx="3" ry="4"/>
              <ellipse class="cls-32" cx="221.84" cy="200.5" rx="2" ry="1"/>
            </g>
          </g>
          <g>
            <path class="cls-32" d="m259.11,182.74c18.47,2.77,17.15,15.3,15.06,29.47-6.51-.8-8.13-1.16-17.76-.6.57-19.65-10.07-30.78,2.7-28.86Z"/>
            <g>
              <ellipse class="cls-32" cx="269.34" cy="203.5" rx="5.5" ry="9"/>
              <path class="cls-32" d="m274.6,203.28l-6.15-1.79h-4.5c.57-3.84,2.7-6.69,5.25-6.69,2.93,0,5.31,3.77,5.4,8.48Z"/>
              <ellipse class="cls-32" cx="267.34" cy="202.5" rx="2.5" ry="4"/>
              <ellipse class="cls-32" cx="270.84" cy="200.5" rx="2" ry="1"/>
            </g>
          </g>
          <path class="cls-32" d="m197.15,212.2c13.49-.85,24.69,0,34.12,2.69.49-11.86,3.09-22.97,3.09-22.97l14.48-3.23s5.26,17.28,5.51,23.38c13.32-.67,17.83-.41,20.33.5,5.92-28.55-9.82-30.01-9.82-30.01l-19.86,4.8-12.64,1.04-29.19-4.6c-11.8,2.78-6.01,28.4-6.01,28.4Z"/>
          <path class="cls-32" d="m275.14,210.1c-14.68-3.61-29.29,1.23-29.29,1.23l.65,2.56c21.16-2.49,28.33-.03,28.33-.03l.3-3.76Z"/>
          <path class="cls-32" d="m180.13,212.2c40.68-5.71,51.13-.14,51.13-.14l-2.2,3.93s-9.73-3.5-46.39-1.1c-.85-.37-2.54-2.69-2.54-2.69Z"/>
          <path class="cls-32" d="m201.71,285.35s10.27-6.11,14.13-6.79c27.77-4.89,32.1,3.68,50.76,1.11-.39,1.3,2.25,3.45-3.69,4.27-16.4,2.25-28.63-7.07-49.07-.02-9.02,3.11-12.13,1.44-12.13,1.44Z"/>
          <path class="cls-32" d="m219.42,290.94c10.92-3.19,23.69,1.61,23.69,1.61,0,0-13.27,1.27-23.69-1.61Z"/>
          <polygon class="cls-32" points="239.11 144.7 240.6 153.3 241.75 148.13 239.11 144.7"/>
        </g>
        <g>
          <g>
            <path class="cls-1" d="m208.12,183.64c14.85,3.4,28-12.43,20.91,31.67-10.19-4.85-25.5-3.65-25.5-3.65-3.73-19.8-.86-29.27,4.59-28.02Z"/>
            <g>
              <ellipse class="cls-9" cx="219.34" cy="203.5" rx="6.5" ry="9"/>
              <path class="cls-14" d="m225.07,199.88c.66,1.97.71,3.83.44,5.53l-6.14-1.91h-6.3c0-5.18,3.23-9.31,7.05-8.7,1.9.3,4.15,2.67,4.96,5.08Z"/>
              <ellipse class="cls-5" cx="218.84" cy="203.5" rx="3" ry="4"/>
              <ellipse class="cls-2" cx="221.84" cy="200.5" rx="2" ry="1"/>
            </g>
          </g>
          <g>
            <path class="cls-1" d="m259.11,182.74c18.47,2.77,17.15,15.3,15.06,29.47-6.51-.8-8.13-1.16-17.76-.6.57-19.65-10.07-30.78,2.7-28.86Z"/>
            <g>
              <ellipse class="cls-9" cx="269.34" cy="203.5" rx="5.5" ry="9"/>
              <path class="cls-14" d="m274.6,203.28l-6.15-1.79h-4.5c.57-3.84,2.7-6.69,5.25-6.69,2.93,0,5.31,3.77,5.4,8.48Z"/>
              <ellipse class="cls-5" cx="267.34" cy="202.5" rx="2.5" ry="4"/>
              <ellipse class="cls-2" cx="270.84" cy="200.5" rx="2" ry="1"/>
            </g>
          </g>
          <path class="cls-26" d="m197.15,212.2c13.49-.85,24.69,0,34.12,2.69.49-11.86,3.09-22.97,3.09-22.97l14.48-3.23s5.26,17.28,5.51,23.38c13.32-.67,17.83-.41,20.33.5,5.92-28.55-9.82-30.01-9.82-30.01l-19.86,4.8-12.64,1.04-29.19-4.6c-11.8,2.78-6.01,28.4-6.01,28.4Z"/>
          <path class="cls-4" d="m275.14,210.1c-14.68-3.61-29.29,1.23-29.29,1.23l.65,2.56c21.16-2.49,28.33-.03,28.33-.03l.3-3.76Z"/>
          <path class="cls-4" d="m180.13,212.2c40.68-5.71,51.13-.14,51.13-.14l-2.2,3.93s-9.73-3.5-46.39-1.1c-.85-.37-2.54-2.69-2.54-2.69Z"/>
          <path class="cls-32" d="m201.71,285.35s10.27-6.11,14.13-6.79c27.77-4.89,32.1,3.68,50.76,1.11-.39,1.3,2.25,3.45-3.69,4.27-16.4,2.25-28.63-7.07-49.07-.02-9.02,3.11-12.13,1.44-12.13,1.44Z"/>
          <path class="cls-32" d="m219.42,290.94c10.92-3.19,23.69,1.61,23.69,1.61,0,0-13.27,1.27-23.69-1.61Z"/>
          <polygon class="cls-32" points="239.11 144.7 240.6 153.3 241.75 148.13 239.11 144.7"/>
        </g>
      </g>
      <g>
        <path class="cls-22" d="m275.37,170.91c-3.4-12.05-24.53-1.23-29.97-2.83-2.29,18.42,13.47,1.44,23.81,3.46,1.91.37,3.81,1.63,5.28,2.88,1.38,1.18,1.37-1.77.88-3.52Z"/>
        <path class="cls-22" d="m185.55,175.7c12.16-18.9,38.33-10.13,49.1-20.23,0,0-.59-11.59-6.98-7.44-7.91,5.14-29.96,2.8-46.48,22.11-2.68,3.14,4.35,5.55,4.35,5.55Z"/>
      </g>
      <g>
        <path class="cls-5" d="m295.22,184.5c-28.07-11.62-51.53,0-51.53,0h-10.46s-29.7-10.51-67.13,1.86l-32.64,18.8,5.6,2.63,27.04-14.04c39.11-14.41,63.87-.69,63.87-.69l.94,17.53c-6.86,4.22-1.22,13.8-1.22,13.8,0,0,8.69-1.97,6.14-15.29-2.55-13.32.42-13.32.42-13.32l5.7-2.03,2.47,11.64.68-12.35c5.12-8.54,36.14-7.62,39.04-4.11l-6.5,3.05.51,5.22,18.76-4.55-1.71-8.14Z"/>
        <path class="cls-2" d="m171.66,205.04c-1.86,11.29,7.54,20.89,7.54,20.89,0,0,16.66,5.54,37.51-.25-24.46,4.1-35.81-2.29-35.81-2.29-3.33-6.04-9.31-12.77-6.38-23.92-1.52,2.46-2.87,5.58-2.87,5.58Z"/>
        <path class="cls-30" d="m292.03,196.68c5.29,11.38-1.89,22.77-1.89,22.77l-3.4-2.78c6.69-6.77,5.29-19.99,5.29-19.99Z"/>
      </g>
      <g>
        <path class="cls-32" d="m139.09,238.28c-4.48,7.87-16.63,5.41-26.64-11.15-11.95-19.76,19.01-45.5,31.96-20.23,4.04,10.5-5.31,31.38-5.31,31.38Z"/>
        <path class="cls-4" d="m139.13,233.41c7.9-25.18-5.47-29.37-8.41-29.84-9.97-1.58-14.11,9.88-11.9,16.81.37-6.36,14.6-4.2,18.74,2.69-3.05,9.09,1.57,10.34,1.57,10.34Z"/>
      </g>
      <g>
        <path class="cls-6" d="m210.53,250.53c17.81-1.95,32.58-13.57,32.58-13.57l27.95,5.62c17.73,11.49,9.54,29.44,9.54,29.44,0,0-6.11,3.1-18.7,3-14.22-.11-23.69-4.7-34.48-4.75-18.58-.09-30.27,8.4-30.27,8.4,1.56-13.97,6.44-21.06,13.38-28.13Z"/>
        <g>
          <path class="cls-7" d="m195.71,281.24c-13.3,31.6,36.81,41.6,46.3,41.47,12.22-.16,31.85-12.33,34.21-46l4.64-.98c5.87,26.72,8.82,36.75,8.82,36.75,23.08,74.05-60.58,82.68-99.63,28.76-14.39-44.03,5.65-60,5.65-60Z"/>
          <path class="cls-6" d="m280.87,275.73c5.45,25.89,7.56,33.63,7.56,33.63,0,0,2.44,12.43,2.44,17.17l-4.55,4-1.84,8.97-4.21.04-3.56,10.89-6.17-2.55-5.78,8.87-6.85-2.97-7.56,4.55-8.74-5.17-6.57,3.94-9.17-8.77-4.63,3.13-5.98-8.95-4.05,2.24-4.72-10.41-5.13,4.05-2.32-11.16-5.06.71-2.98-11.89-3.14.64c-3-27.36,7.84-35.46,7.84-35.46.32,12.02,11.14,8.92,16.63,13.34,5.77,4.65,7.62,5.47,18,6.07,11.86.68,15.96-3.11,24.15-7.39,8.19-4.28,18.47-4.94,21.74-16.55l4.64-.98Z"/>
        </g>
      </g>
      <g>
        <path class="cls-31" d="m226.42,241.04s6.54-11.56,13.52-18.71c14.53-14.87,38.73-6.75,40.52,10.54,1.93,18.63-17.9,30.78-32.52,25.51-8.21-2.96-21.52-17.33-21.52-17.33Z"/>
        <path class="cls-18" d="m279.05,227.43c-.71,6.5-7.66,12.11-16.64,12.99-9.91.97-18.54-4.19-19.26-11.54-.6-6.14,4.51-11.86,12.01-14.14,10.12-1.18,20.16,3.95,23.89,12.69Z"/>
      </g>
      <g>
        <path class="cls-24" d="m338.34,467.9l10.33-13.53-31.86-10.88h-44.64l1.08,3.41c-12.73-2.84-12.98,15.12-9.27,18.46,3.71,3.33,74.37,2.54,74.37,2.54Z"/>
        <path class="cls-29" d="m305.29,441.5c.72-22.89,32.24-13.73,20.46,1.63l24.88,8.69-3.31,4.3-31.92-10.62h-42.63l-1.36-4h33.88Z"/>
        <polygon class="cls-17" points="369.54 464.91 224.44 448 179.95 610.46 313.3 615.76 374.14 472.13 369.54 464.91"/>
        <polygon class="cls-12" points="224.44 448 230.07 456.71 199.01 553.56 214.95 582.53 185.15 601.76 313.3 615.76 179.95 610.46 175.67 598.79 224.44 448"/>
      </g>
      <g>
        <path class="cls-26" d="m167.35,484.45c-72.76-12.13-57.62-49.13-132.52-51.02-35.82,0,12.67,101.79,125.26,95.2,38.34-18.61,7.27-44.18,7.27-44.18Z"/>
        <path class="cls-32" d="m209.7,561.31c-21.5-9.44-18.88-10.99-18.88-10.99,2.71-18.62-2.93-53.9-8.65-67.14-3.13-7.24-5.01-11.98-11.12-7.55-5.87,4.26-8.37,11.22-13.75,16.18-10.85,10.01-14.54,18.96-15.97,26.78-65.7-17.6-124-75.25-106.51-85.16-24.37-.02-33.82,29.3-33.82,29.3,0,0,12.18,96.77,147.6,87.39.39.71.78,1.42,1.18,2.15,6.37,11.62,14.62,24.99,26.09,28.29,16.45,6.4,40.48,4.54,40.48,4.54l7.01-15.93s-10.8-6.12-13.66-7.87Z"/>
        <path class="cls-26" d="m247.23,518.56s-11.9-6.84-20.31-9.74l15.03,2.4,4.57-18.35-23.16-16.85s-16.06-5.45-24.85-6.4c-12.56-1.37-19.74-.67-27.46,6.02-4.26,4.27,4.72,12.94,4.72,12.94,0,0-10.54,2.61-13.62,9.38-3.6,7.92,16.99,21.79,16.99,21.79-24.61-7.96-24.1,11.96-6.76,25.22,2.79,2.14,6.02,4.1,9.66,5.75-21.13-5.73-15.42,10.02-1.68,18.15,9.66,5.71,37.78,12.17,37.78,12.17l5.23-11.86s-4.54-3.55-10.43-5.81l19.09,1.73,6.73-22.47s-6.37-3.51-13.9-5.99l18.97,2.61,3.4-20.68Z"/>
      </g>
    </g>
    <g>
      <circle class="cls-2" cx="468.34" cy="103" r="91.81"/>
      <circle class="cls-8" cx="468.34" cy="103" r="84.55"/>
      <circle class="cls-2" cx="467.82" cy="103.51" r="63.71"/>
      <rect class="cls-8" x="390.5" y="92.88" width="155.12" height="21.08" transform="translate(210.22 -300.68) rotate(45)"/>
    </g>
    <rect class="cls-23" width="571.6" height="952.46"/>
  </g>
</svg>