<?xml version="1.0" encoding="UTF-8"?><svg xmlns="http://www.w3.org/2000/svg" viewBox="0 0 158 106.63"><defs><style>.d{fill:none;stroke:#213760;stroke-miterlimit:10;stroke-width:12px;}.e{fill:#a0addc;}.f{fill:#93ade0;}.g{fill:#213760;}.h{fill:#dae0f8;}.i{fill:#4e6a9e;}</style></defs><g id="a"/><g id="b"><g id="c"><g><path class="f" d="M140.68,89.56l-55.32-55.32c-1.76-1.76-4.06-2.64-6.36-2.64s-4.61,.88-6.36,2.64L17.32,89.56c-6.3,6.3-1.84,17.07,7.07,17.07h109.22c8.91,0,13.37-10.77,7.07-17.07Z"/><rect class="g" x="55" y="63.63" width="48" height="8"/><path class="d" d="M115.2,25.63h-8.41s-.08-.03-.08-.08c-.04-6.57-5.63-19.55-27.7-19.55s-27.66,12.98-27.7,19.55c0,.04-.04,.08-.08,.08h-8.41c-4.31,0-7.8,3.49-7.8,7.8v18.39c0,4.31,3.49,7.8,7.8,7.8h4.11s.08,.04,.08,.08v6.49c0,3.85,2.97,7.22,6.82,7.32s7.18-3.05,7.18-6.95v-6.87s.04-.08,.08-.08h35.83s.08,.04,.08,.08v6.87c0,3.9,3.23,7.05,7.18,6.95s6.82-3.47,6.82-7.32v-6.49s.04-.08,.08-.08h4.11c4.31,0,7.8-3.49,7.8-7.8v-18.39c0-4.31-3.49-7.8-7.8-7.8Z"/><path class="i" d="M51.68,46.16L17.07,80.78c-6.3,6.3-17.07,1.84-17.07-7.07v-26.08c0-5.52,4.48-10,10-10H48.15c4.45,0,6.69,5.39,3.54,8.54Z"/><path class="i" d="M109.85,37.63h38.15c5.52,0,10,4.48,10,10v26.08c0,8.91-10.77,13.37-17.07,7.07l-34.61-34.61c-3.15-3.15-.92-8.54,3.54-8.54Z"/><path class="e" d="M115.28,37.63H42.72c-4.26,0-7.72,3.46-7.72,7.72v6.56c0,4.26,3.46,7.72,7.72,7.72h4.28v6.7c0,3.31,2.21,6.34,5.45,7.03,4.54,.97,8.55-2.44,8.55-6.78v-6.95h36v6.95c0,4.34,4.01,7.75,8.55,6.78,3.24-.69,5.45-3.72,5.45-7.03v-6.7h4.28c4.26,0,7.72-3.46,7.72-7.72v-6.56c0-4.26-3.46-7.72-7.72-7.72Z"/><path class="h" d="M115.28,25.63h-8.58c0-6.54-5.54-19.63-27.7-19.63s-27.7,13.09-27.7,19.63h-8.58c-4.26,0-7.72,3.46-7.72,7.72v17.28H123v-17.28c0-4.26-3.46-7.72-7.72-7.72Z"/></g></g></g></svg>