<?xml version="1.0" encoding="utf-8"?>
<!-- Generator: Adobe Illustrator 27.6.1, SVG Export Plug-In . SVG Version: 6.00 Build 0)  -->
<svg version="1.1" id="Layer_2_00000070819240989370220620000001218268800733224627_"
	 xmlns="http://www.w3.org/2000/svg" xmlns:xlink="http://www.w3.org/1999/xlink" x="0px" y="0px" viewBox="0 0 635 427.7"
	 style="enable-background:new 0 0 635 427.7;" xml:space="preserve">
<g id="Layer_1-2">
	<path d="M598.7,84.2H381.1c-3.3,0-6-2.7-6-6.1V52.8c0-3.3,2.7-6,6-6h72.1c18,0,33.8-11.9,38.8-29.1L497.1,0l8.3-42.6H125.5L137.9,0
		l5.1,17.6c5,17.3,20.8,29.1,38.8,29.1h72.1c3.3,0,6,2.7,6,6v25.3c0,3.3-2.7,6.1-6.1,6.1H36.3c-20.9,0-37.5,17.6-36.3,38.5
		l16.4,270.9c1.2,19.2,17,34.1,36.3,34.1h529.6c19.2,0,35.1-15,36.3-34.1l16.4-270.9C636.2,101.8,619.6,84.2,598.7,84.2L598.7,84.2z
		 M608.9,123.3l-16.1,266.7c-0.4,6.6-5.8,11.7-12.4,11.7H54.7c-6.6,0-12-5.1-12.4-11.7L26.1,123.3c-0.4-7.2,5.3-13.2,12.4-13.2
		h557.9C603.6,110.1,609.3,116.2,608.9,123.3L608.9,123.3z"/>
</g>
</svg>
