<?xml version="1.0" encoding="UTF-8"?><svg xmlns="http://www.w3.org/2000/svg" viewBox="0 0 158 107"><defs><style>.d{fill:#a0addc;}.e{fill:#93ade0;}.f{fill:#213760;}.g{fill:#dae0f8;}.h{fill:#4e6a9e;}</style></defs><g id="a"/><g id="b"><g id="c"><g><path class="e" d="M12,0H30c2.21,0,4,1.79,4,4V103c0,2.21-1.79,4-4,4H12c-6.63,0-12-5.37-12-12V12C0,5.37,5.37,0,12,0Z"/><path class="e" d="M128,0h18c6.63,0,12,5.37,12,12V95c0,6.63-5.37,12-12,12h-18c-2.21,0-4-1.79-4-4V4c0-2.21,1.79-4,4-4Z"/><rect class="h" x="40" width="78" height="107" rx="4" ry="4"/><rect class="f" x="51" y="31" width="56" height="65" rx="10" ry="10"/><rect class="d" x="56" y="13" width="46" height="72" rx="8" ry="8"/><path class="g" d="M56,46c0-7.73,6.27-14,14-14h18c7.73,0,14,6.27,14,14v31c0,4.42-3.58,8-8,8h-30c-4.42,0-8-3.58-8-8v-31Z"/><rect class="d" x="68" y="73" width="22" height="12"/></g></g></g></svg>